<?xml version="1.0" encoding="utf-8"?>
<!-- Generator: Adobe Illustrator 22.1.0, SVG Export Plug-In . SVG Version: 6.00 Build 0)  -->
<svg version="1.1" id="Layer_1" xmlns="http://www.w3.org/2000/svg" xmlns:xlink="http://www.w3.org/1999/xlink" x="0px" y="0px"
	 viewBox="0 0 42 48" style="enable-background:new 0 0 42 48;" xml:space="preserve">
<style type="text/css">
	.st0{fill:#FFFFFF;}
</style>
<path class="st0" d="M12.7,8.4v4.8v5.1v14.2c-1.3-0.8-2.8-1.2-4.4-1.2c-4.6,0-8.4,3.7-8.4,8.3C0,44.3,3.7,48,8.4,48
	c4.6,0,8.3-3.7,8.3-8.4l0,0V17.2L38,11v14.3c-1.3-0.8-2.8-1.2-4.3-1.2c-4.6,0-8.4,3.7-8.4,8.3s3.7,8.4,8.4,8.4
	c4.3,0,7.9-3.3,8.3-7.6l0,0V9.9V6.3V0L12.7,8.4z"/>
</svg>
